<svg xmlns="http://www.w3.org/2000/svg" xmlns:xlink="http://www.w3.org/1999/xlink" width="1366" zoomAndPan="magnify" viewBox="0 0 1024.5 576" height="768" preserveAspectRatio="xMidYMid meet" version="1.0"><defs><g/><clipPath id="61480bf919"><path d="M 0 0.140625 L 1024 0.140625 L 1024 575.859375 L 0 575.859375 Z M 0 0.140625 " clip-rule="nonzero"/></clipPath></defs><g clip-path="url(#61480bf919)"><path fill="#ffffff" d="M 0 0.140625 L 1024 0.140625 L 1024 575.859375 L 0 575.859375 Z M 0 0.140625 " fill-opacity="1" fill-rule="nonzero"/><path fill="#000000" d="M 0 0.140625 L 1024 0.140625 L 1024 575.859375 L 0 575.859375 Z M 0 0.140625 " fill-opacity="1" fill-rule="nonzero"/></g><g fill="#ffffff" fill-opacity="1"><g transform="translate(426.420431, 147.818428)"><g><path d="M 34.765625 -44.796875 L 6.4375 -44.796875 L 6.4375 -60.828125 L 34.765625 -60.828125 L 34.765625 -89.375 L 50.796875 -89.375 L 50.796875 -60.828125 L 79.140625 -60.828125 L 79.140625 -44.796875 L 50.796875 -44.796875 L 50.796875 -16.625 L 34.765625 -16.625 Z M 34.765625 -44.796875 "/></g></g><g transform="translate(511.998778, 147.818428)"><g><path d="M 76.640625 -83.09375 C 76.640625 -76.40625 74.613281 -70.71875 70.5625 -66.03125 C 66.519531 -61.34375 60.835938 -58.117188 53.515625 -56.359375 L 53.515625 -55.921875 C 62.148438 -54.847656 68.6875 -52.222656 73.125 -48.046875 C 77.570312 -43.878906 79.796875 -38.257812 79.796875 -31.1875 C 79.796875 -20.882812 76.0625 -12.863281 68.59375 -7.125 C 61.125 -1.394531 50.460938 1.46875 36.609375 1.46875 C 24.984375 1.46875 14.679688 -0.457031 5.703125 -4.3125 L 5.703125 -23.578125 C 9.859375 -21.472656 14.421875 -19.757812 19.390625 -18.4375 C 24.367188 -17.125 29.300781 -16.46875 34.1875 -16.46875 C 41.65625 -16.46875 47.171875 -17.734375 50.734375 -20.265625 C 54.296875 -22.804688 56.078125 -26.882812 56.078125 -32.5 C 56.078125 -37.53125 54.023438 -41.09375 49.921875 -43.1875 C 45.828125 -45.289062 39.289062 -46.34375 30.3125 -46.34375 L 22.1875 -46.34375 L 22.1875 -63.6875 L 30.453125 -63.6875 C 38.742188 -63.6875 44.804688 -64.769531 48.640625 -66.9375 C 52.472656 -69.113281 54.390625 -72.835938 54.390625 -78.109375 C 54.390625 -86.210938 49.316406 -90.265625 39.171875 -90.265625 C 35.648438 -90.265625 32.070312 -89.675781 28.4375 -88.5 C 24.800781 -87.332031 20.765625 -85.304688 16.328125 -82.421875 L 5.859375 -98.015625 C 15.617188 -105.046875 27.257812 -108.5625 40.78125 -108.5625 C 51.851562 -108.5625 60.597656 -106.316406 67.015625 -101.828125 C 73.429688 -97.335938 76.640625 -91.09375 76.640625 -83.09375 Z M 76.640625 -83.09375 "/></g></g></g><g fill="#ffffff" fill-opacity="1"><g transform="translate(340.840742, 435.677929)"><g><path d="M 61.9375 0 L 39.3125 0 L 39.3125 -61.9375 L 39.53125 -72.109375 L 39.890625 -83.234375 C 36.140625 -79.472656 33.53125 -77.007812 32.0625 -75.84375 L 19.765625 -65.953125 L 8.859375 -79.578125 L 43.34375 -107.03125 L 61.9375 -107.03125 Z M 61.9375 0 "/></g></g><g transform="translate(426.419089, 435.677929)"><g><path d="M 44.953125 -68.375 C 55.296875 -68.375 63.53125 -65.46875 69.65625 -59.65625 C 75.78125 -53.851562 78.84375 -45.898438 78.84375 -35.796875 C 78.84375 -23.835938 75.15625 -14.632812 67.78125 -8.1875 C 60.414062 -1.75 49.875 1.46875 36.15625 1.46875 C 24.25 1.46875 14.640625 -0.457031 7.328125 -4.3125 L 7.328125 -23.859375 C 11.179688 -21.816406 15.664062 -20.144531 20.78125 -18.84375 C 25.90625 -17.550781 30.765625 -16.90625 35.359375 -16.90625 C 49.171875 -16.90625 56.078125 -22.566406 56.078125 -33.890625 C 56.078125 -44.679688 48.925781 -50.078125 34.625 -50.078125 C 32.039062 -50.078125 29.1875 -49.816406 26.0625 -49.296875 C 22.9375 -48.785156 20.398438 -48.238281 18.453125 -47.65625 L 9.4375 -52.484375 L 13.46875 -107.03125 L 71.515625 -107.03125 L 71.515625 -87.84375 L 33.3125 -87.84375 L 31.328125 -66.828125 L 33.890625 -67.34375 C 36.867188 -68.03125 40.554688 -68.375 44.953125 -68.375 Z M 44.953125 -68.375 "/></g></g><g transform="translate(511.997437, 435.677929)"><g><path d="M 80.234375 -53.515625 C 80.234375 -34.816406 77.171875 -20.976562 71.046875 -12 C 64.921875 -3.019531 55.488281 1.46875 42.75 1.46875 C 30.40625 1.46875 21.097656 -3.164062 14.828125 -12.4375 C 8.554688 -21.71875 5.421875 -35.410156 5.421875 -53.515625 C 5.421875 -72.398438 8.46875 -86.316406 14.5625 -95.265625 C 20.664062 -104.222656 30.0625 -108.703125 42.75 -108.703125 C 55.09375 -108.703125 64.425781 -104.015625 70.75 -94.640625 C 77.070312 -85.273438 80.234375 -71.566406 80.234375 -53.515625 Z M 27.890625 -53.515625 C 27.890625 -40.378906 29.023438 -30.96875 31.296875 -25.28125 C 33.566406 -19.601562 37.382812 -16.765625 42.75 -16.765625 C 48.019531 -16.765625 51.828125 -19.644531 54.171875 -25.40625 C 56.515625 -31.164062 57.6875 -40.535156 57.6875 -53.515625 C 57.6875 -66.640625 56.5 -76.066406 54.125 -81.796875 C 51.757812 -87.535156 47.96875 -90.40625 42.75 -90.40625 C 37.425781 -90.40625 33.617188 -87.535156 31.328125 -81.796875 C 29.035156 -76.066406 27.890625 -66.640625 27.890625 -53.515625 Z M 27.890625 -53.515625 "/></g></g><g transform="translate(597.575784, 435.677929)"><g><path d="M 34.765625 -44.796875 L 6.4375 -44.796875 L 6.4375 -60.828125 L 34.765625 -60.828125 L 34.765625 -89.375 L 50.796875 -89.375 L 50.796875 -60.828125 L 79.140625 -60.828125 L 79.140625 -44.796875 L 50.796875 -44.796875 L 50.796875 -16.625 L 34.765625 -16.625 Z M 34.765625 -44.796875 "/></g></g></g><g fill="#ffffff" fill-opacity="1"><g transform="translate(233.743486, 235.175782)"><g><path d="M 23.78125 0 L 22.15625 -4.15625 L 21.9375 -4.15625 C 20.539062 -2.382812 19.097656 -1.15625 17.609375 -0.46875 C 16.128906 0.207031 14.195312 0.546875 11.8125 0.546875 C 8.875 0.546875 6.5625 -0.289062 4.875 -1.96875 C 3.1875 -3.644531 2.34375 -6.03125 2.34375 -9.125 C 2.34375 -12.375 3.476562 -14.765625 5.75 -16.296875 C 8.019531 -17.835938 11.441406 -18.691406 16.015625 -18.859375 L 21.3125 -19.015625 L 21.3125 -20.359375 C 21.3125 -23.453125 19.726562 -25 16.5625 -25 C 14.125 -25 11.253906 -24.265625 7.953125 -22.796875 L 5.1875 -28.421875 C 8.707031 -30.265625 12.609375 -31.1875 16.890625 -31.1875 C 20.984375 -31.1875 24.125 -30.289062 26.3125 -28.5 C 28.5 -26.71875 29.59375 -24.003906 29.59375 -20.359375 L 29.59375 0 Z M 21.3125 -14.15625 L 18.09375 -14.046875 C 15.664062 -13.972656 13.859375 -13.535156 12.671875 -12.734375 C 11.492188 -11.929688 10.90625 -10.710938 10.90625 -9.078125 C 10.90625 -6.722656 12.253906 -5.546875 14.953125 -5.546875 C 16.878906 -5.546875 18.421875 -6.097656 19.578125 -7.203125 C 20.734375 -8.316406 21.3125 -9.796875 21.3125 -11.640625 Z M 21.3125 -14.15625 "/></g></g></g><g fill="#ffffff" fill-opacity="1"><g transform="translate(267.546487, 235.175782)"><g><path d="M 32.578125 0 L 24.234375 0 L 24.234375 -17.84375 C 24.234375 -20.050781 23.84375 -21.703125 23.0625 -22.796875 C 22.28125 -23.898438 21.035156 -24.453125 19.328125 -24.453125 C 16.992188 -24.453125 15.304688 -23.671875 14.265625 -22.109375 C 13.222656 -20.554688 12.703125 -17.976562 12.703125 -14.375 L 12.703125 0 L 4.375 0 L 4.375 -30.546875 L 10.734375 -30.546875 L 11.859375 -26.640625 L 12.328125 -26.640625 C 13.253906 -28.117188 14.53125 -29.234375 16.15625 -29.984375 C 17.789062 -30.742188 19.644531 -31.125 21.71875 -31.125 C 25.28125 -31.125 27.976562 -30.160156 29.8125 -28.234375 C 31.65625 -26.316406 32.578125 -23.546875 32.578125 -19.921875 Z M 13.875 -36.78125 C 13.3125 -36.78125 12.769531 -36.535156 12.25 -36.046875 C 11.726562 -35.566406 11.351562 -34.835938 11.125 -33.859375 L 7.046875 -33.859375 C 7.242188 -36.503906 7.992188 -38.570312 9.296875 -40.0625 C 10.597656 -41.550781 12.328125 -42.296875 14.484375 -42.296875 C 15.222656 -42.296875 15.953125 -42.144531 16.671875 -41.84375 C 17.398438 -41.550781 18.113281 -41.226562 18.8125 -40.875 C 19.507812 -40.519531 20.195312 -40.195312 20.875 -39.90625 C 21.550781 -39.613281 22.21875 -39.46875 22.875 -39.46875 C 23.4375 -39.46875 23.976562 -39.703125 24.5 -40.171875 C 25.019531 -40.648438 25.394531 -41.378906 25.625 -42.359375 L 29.703125 -42.359375 C 29.503906 -39.710938 28.742188 -37.644531 27.421875 -36.15625 C 26.097656 -34.664062 24.378906 -33.921875 22.265625 -33.921875 C 21.523438 -33.921875 20.789062 -34.066406 20.0625 -34.359375 C 19.34375 -34.660156 18.632812 -34.988281 17.9375 -35.34375 C 17.238281 -35.695312 16.550781 -36.023438 15.875 -36.328125 C 15.195312 -36.628906 14.53125 -36.78125 13.875 -36.78125 Z M 13.875 -36.78125 "/></g></g></g><g fill="#ffffff" fill-opacity="1"><g transform="translate(304.328088, 235.175782)"><g><path d="M 11.015625 -15.328125 C 11.015625 -12.304688 11.507812 -10.019531 12.5 -8.46875 C 13.5 -6.925781 15.117188 -6.15625 17.359375 -6.15625 C 19.578125 -6.15625 21.171875 -6.921875 22.140625 -8.453125 C 23.117188 -9.992188 23.609375 -12.285156 23.609375 -15.328125 C 23.609375 -18.359375 23.113281 -20.628906 22.125 -22.140625 C 21.144531 -23.648438 19.535156 -24.40625 17.296875 -24.40625 C 15.078125 -24.40625 13.472656 -23.648438 12.484375 -22.140625 C 11.503906 -20.640625 11.015625 -18.367188 11.015625 -15.328125 Z M 32.140625 -15.328125 C 32.140625 -10.359375 30.828125 -6.46875 28.203125 -3.65625 C 25.578125 -0.851562 21.925781 0.546875 17.25 0.546875 C 14.3125 0.546875 11.722656 -0.09375 9.484375 -1.375 C 7.242188 -2.664062 5.519531 -4.507812 4.3125 -6.90625 C 3.113281 -9.3125 2.515625 -12.117188 2.515625 -15.328125 C 2.515625 -20.316406 3.816406 -24.195312 6.421875 -26.96875 C 9.023438 -29.738281 12.6875 -31.125 17.40625 -31.125 C 20.34375 -31.125 22.929688 -30.484375 25.171875 -29.203125 C 27.410156 -27.929688 29.128906 -26.101562 30.328125 -23.71875 C 31.535156 -21.332031 32.140625 -18.535156 32.140625 -15.328125 Z M 32.140625 -15.328125 "/></g></g></g><g fill="#ffffff" fill-opacity="1"><g transform="translate(338.978213, 235.175782)"><g><path d="M 25.6875 -9.078125 C 25.6875 -5.941406 24.597656 -3.550781 22.421875 -1.90625 C 20.242188 -0.269531 16.988281 0.546875 12.65625 0.546875 C 10.425781 0.546875 8.53125 0.394531 6.96875 0.09375 C 5.40625 -0.207031 3.9375 -0.648438 2.5625 -1.234375 L 2.5625 -8.109375 C 4.113281 -7.378906 5.859375 -6.769531 7.796875 -6.28125 C 9.742188 -5.789062 11.453125 -5.546875 12.921875 -5.546875 C 15.953125 -5.546875 17.46875 -6.421875 17.46875 -8.171875 C 17.46875 -8.828125 17.265625 -9.359375 16.859375 -9.765625 C 16.460938 -10.179688 15.769531 -10.644531 14.78125 -11.15625 C 13.800781 -11.675781 12.488281 -12.285156 10.84375 -12.984375 C 8.5 -13.960938 6.773438 -14.867188 5.671875 -15.703125 C 4.566406 -16.546875 3.765625 -17.507812 3.265625 -18.59375 C 2.765625 -19.675781 2.515625 -21.007812 2.515625 -22.59375 C 2.515625 -25.3125 3.566406 -27.410156 5.671875 -28.890625 C 7.773438 -30.378906 10.757812 -31.125 14.625 -31.125 C 18.300781 -31.125 21.878906 -30.320312 25.359375 -28.71875 L 22.84375 -22.703125 C 21.3125 -23.359375 19.878906 -23.894531 18.546875 -24.3125 C 17.222656 -24.738281 15.867188 -24.953125 14.484375 -24.953125 C 12.023438 -24.953125 10.796875 -24.285156 10.796875 -22.953125 C 10.796875 -22.203125 11.191406 -21.554688 11.984375 -21.015625 C 12.773438 -20.472656 14.507812 -19.660156 17.1875 -18.578125 C 19.570312 -17.617188 21.320312 -16.71875 22.4375 -15.875 C 23.550781 -15.039062 24.367188 -14.078125 24.890625 -12.984375 C 25.421875 -11.890625 25.6875 -10.585938 25.6875 -9.078125 Z M 25.6875 -9.078125 "/></g></g></g><g fill="#ffffff" fill-opacity="1"><g transform="translate(366.79669, 235.175782)"><g/></g></g><g fill="#ffffff" fill-opacity="1"><g transform="translate(381.33444, 235.175782)"><g><path d="M 14.046875 0.546875 C 10.453125 0.546875 7.628906 -0.84375 5.578125 -3.625 C 3.535156 -6.414062 2.515625 -10.28125 2.515625 -15.21875 C 2.515625 -20.226562 3.554688 -24.128906 5.640625 -26.921875 C 7.722656 -29.722656 10.597656 -31.125 14.265625 -31.125 C 18.109375 -31.125 21.039062 -29.628906 23.0625 -26.640625 L 23.34375 -26.640625 C 22.914062 -28.921875 22.703125 -30.953125 22.703125 -32.734375 L 22.703125 -42.515625 L 31.078125 -42.515625 L 31.078125 0 L 24.671875 0 L 23.0625 -3.96875 L 22.703125 -3.96875 C 20.816406 -0.957031 17.929688 0.546875 14.046875 0.546875 Z M 16.96875 -6.09375 C 19.101562 -6.09375 20.664062 -6.710938 21.65625 -7.953125 C 22.644531 -9.191406 23.1875 -11.296875 23.28125 -14.265625 L 23.28125 -15.171875 C 23.28125 -18.453125 22.773438 -20.800781 21.765625 -22.21875 C 20.753906 -23.632812 19.109375 -24.34375 16.828125 -24.34375 C 14.972656 -24.34375 13.53125 -23.554688 12.5 -21.984375 C 11.46875 -20.410156 10.953125 -18.117188 10.953125 -15.109375 C 10.953125 -12.109375 11.472656 -9.851562 12.515625 -8.34375 C 13.554688 -6.84375 15.039062 -6.09375 16.96875 -6.09375 Z M 16.96875 -6.09375 "/></g></g></g><g fill="#ffffff" fill-opacity="1"><g transform="translate(416.74971, 235.175782)"><g><path d="M 17.03125 -25.203125 C 15.257812 -25.203125 13.875 -24.640625 12.875 -23.515625 C 11.875 -22.390625 11.300781 -20.800781 11.15625 -18.75 L 22.84375 -18.75 C 22.8125 -20.800781 22.273438 -22.390625 21.234375 -23.515625 C 20.191406 -24.640625 18.789062 -25.203125 17.03125 -25.203125 Z M 18.203125 0.546875 C 13.285156 0.546875 9.441406 -0.804688 6.671875 -3.515625 C 3.898438 -6.234375 2.515625 -10.082031 2.515625 -15.0625 C 2.515625 -20.175781 3.789062 -24.128906 6.34375 -26.921875 C 8.90625 -29.722656 12.445312 -31.125 16.96875 -31.125 C 21.289062 -31.125 24.648438 -29.894531 27.046875 -27.4375 C 29.453125 -24.976562 30.65625 -21.582031 30.65625 -17.25 L 30.65625 -13.203125 L 10.953125 -13.203125 C 11.046875 -10.828125 11.75 -8.972656 13.0625 -7.640625 C 14.375 -6.316406 16.210938 -5.65625 18.578125 -5.65625 C 20.421875 -5.65625 22.160156 -5.847656 23.796875 -6.234375 C 25.441406 -6.617188 27.15625 -7.226562 28.9375 -8.0625 L 28.9375 -1.609375 C 27.476562 -0.878906 25.921875 -0.335938 24.265625 0.015625 C 22.609375 0.367188 20.585938 0.546875 18.203125 0.546875 Z M 18.203125 0.546875 "/></g></g></g><g fill="#ffffff" fill-opacity="1"><g transform="translate(449.814904, 235.175782)"><g/></g></g><g fill="#ffffff" fill-opacity="1"><g transform="translate(464.352654, 235.175782)"><g><path d="M 17.03125 -25.203125 C 15.257812 -25.203125 13.875 -24.640625 12.875 -23.515625 C 11.875 -22.390625 11.300781 -20.800781 11.15625 -18.75 L 22.84375 -18.75 C 22.8125 -20.800781 22.273438 -22.390625 21.234375 -23.515625 C 20.191406 -24.640625 18.789062 -25.203125 17.03125 -25.203125 Z M 18.203125 0.546875 C 13.285156 0.546875 9.441406 -0.804688 6.671875 -3.515625 C 3.898438 -6.234375 2.515625 -10.082031 2.515625 -15.0625 C 2.515625 -20.175781 3.789062 -24.128906 6.34375 -26.921875 C 8.90625 -29.722656 12.445312 -31.125 16.96875 -31.125 C 21.289062 -31.125 24.648438 -29.894531 27.046875 -27.4375 C 29.453125 -24.976562 30.65625 -21.582031 30.65625 -17.25 L 30.65625 -13.203125 L 10.953125 -13.203125 C 11.046875 -10.828125 11.75 -8.972656 13.0625 -7.640625 C 14.375 -6.316406 16.210938 -5.65625 18.578125 -5.65625 C 20.421875 -5.65625 22.160156 -5.847656 23.796875 -6.234375 C 25.441406 -6.617188 27.15625 -7.226562 28.9375 -8.0625 L 28.9375 -1.609375 C 27.476562 -0.878906 25.921875 -0.335938 24.265625 0.015625 C 22.609375 0.367188 20.585938 0.546875 18.203125 0.546875 Z M 18.203125 0.546875 "/></g></g></g><g fill="#ffffff" fill-opacity="1"><g transform="translate(497.417837, 235.175782)"><g><path d="M 10.625 -15.609375 L 0.796875 -30.546875 L 10.25 -30.546875 L 16.171875 -20.828125 L 22.15625 -30.546875 L 31.625 -30.546875 L 21.671875 -15.609375 L 32.078125 0 L 22.59375 0 L 16.171875 -10.46875 L 9.734375 0 L 0.265625 0 Z M 10.625 -15.609375 "/></g></g></g><g fill="#ffffff" fill-opacity="1"><g transform="translate(529.772529, 235.175782)"><g><path d="M 21.15625 0.546875 C 17.5625 0.546875 14.742188 -0.753906 12.703125 -3.359375 L 12.265625 -3.359375 C 12.554688 -0.804688 12.703125 0.664062 12.703125 1.0625 L 12.703125 13.453125 L 4.375 13.453125 L 4.375 -30.546875 L 11.15625 -30.546875 L 12.328125 -26.59375 L 12.703125 -26.59375 C 14.648438 -29.613281 17.539062 -31.125 21.375 -31.125 C 24.976562 -31.125 27.800781 -29.726562 29.84375 -26.9375 C 31.882812 -24.15625 32.90625 -20.285156 32.90625 -15.328125 C 32.90625 -12.066406 32.425781 -9.234375 31.46875 -6.828125 C 30.507812 -4.421875 29.144531 -2.585938 27.375 -1.328125 C 25.613281 -0.078125 23.539062 0.546875 21.15625 0.546875 Z M 18.6875 -24.453125 C 16.632812 -24.453125 15.132812 -23.816406 14.1875 -22.546875 C 13.238281 -21.285156 12.742188 -19.195312 12.703125 -16.28125 L 12.703125 -15.390625 C 12.703125 -12.109375 13.1875 -9.753906 14.15625 -8.328125 C 15.132812 -6.910156 16.679688 -6.203125 18.796875 -6.203125 C 22.535156 -6.203125 24.40625 -9.28125 24.40625 -15.4375 C 24.40625 -18.445312 23.941406 -20.703125 23.015625 -22.203125 C 22.097656 -23.703125 20.65625 -24.453125 18.6875 -24.453125 Z M 18.6875 -24.453125 "/></g></g></g><g fill="#ffffff" fill-opacity="1"><g transform="translate(565.187799, 235.175782)"><g><path d="M 17.03125 -25.203125 C 15.257812 -25.203125 13.875 -24.640625 12.875 -23.515625 C 11.875 -22.390625 11.300781 -20.800781 11.15625 -18.75 L 22.84375 -18.75 C 22.8125 -20.800781 22.273438 -22.390625 21.234375 -23.515625 C 20.191406 -24.640625 18.789062 -25.203125 17.03125 -25.203125 Z M 18.203125 0.546875 C 13.285156 0.546875 9.441406 -0.804688 6.671875 -3.515625 C 3.898438 -6.234375 2.515625 -10.082031 2.515625 -15.0625 C 2.515625 -20.175781 3.789062 -24.128906 6.34375 -26.921875 C 8.90625 -29.722656 12.445312 -31.125 16.96875 -31.125 C 21.289062 -31.125 24.648438 -29.894531 27.046875 -27.4375 C 29.453125 -24.976562 30.65625 -21.582031 30.65625 -17.25 L 30.65625 -13.203125 L 10.953125 -13.203125 C 11.046875 -10.828125 11.75 -8.972656 13.0625 -7.640625 C 14.375 -6.316406 16.210938 -5.65625 18.578125 -5.65625 C 20.421875 -5.65625 22.160156 -5.847656 23.796875 -6.234375 C 25.441406 -6.617188 27.15625 -7.226562 28.9375 -8.0625 L 28.9375 -1.609375 C 27.476562 -0.878906 25.921875 -0.335938 24.265625 0.015625 C 22.609375 0.367188 20.585938 0.546875 18.203125 0.546875 Z M 18.203125 0.546875 "/></g></g></g><g fill="#ffffff" fill-opacity="1"><g transform="translate(598.252983, 235.175782)"><g><path d="M 21.421875 -31.125 C 22.554688 -31.125 23.492188 -31.039062 24.234375 -30.875 L 23.609375 -23.0625 C 22.929688 -23.25 22.113281 -23.34375 21.15625 -23.34375 C 18.488281 -23.34375 16.410156 -22.65625 14.921875 -21.28125 C 13.441406 -19.914062 12.703125 -18.003906 12.703125 -15.546875 L 12.703125 0 L 4.375 0 L 4.375 -30.546875 L 10.6875 -30.546875 L 11.921875 -25.421875 L 12.328125 -25.421875 C 13.273438 -27.128906 14.550781 -28.503906 16.15625 -29.546875 C 17.769531 -30.597656 19.523438 -31.125 21.421875 -31.125 Z M 21.421875 -31.125 "/></g></g></g><g fill="#ffffff" fill-opacity="1"><g transform="translate(623.666695, 235.175782)"><g><path d="M 4.015625 -38.453125 C 4.015625 -41.160156 5.523438 -42.515625 8.546875 -42.515625 C 11.578125 -42.515625 13.09375 -41.160156 13.09375 -38.453125 C 13.09375 -37.160156 12.710938 -36.15625 11.953125 -35.4375 C 11.203125 -34.71875 10.066406 -34.359375 8.546875 -34.359375 C 5.523438 -34.359375 4.015625 -35.722656 4.015625 -38.453125 Z M 12.703125 0 L 4.375 0 L 4.375 -30.546875 L 12.703125 -30.546875 Z M 12.703125 0 "/></g></g></g><g fill="#ffffff" fill-opacity="1"><g transform="translate(640.745807, 235.175782)"><g><path d="M 17.03125 -25.203125 C 15.257812 -25.203125 13.875 -24.640625 12.875 -23.515625 C 11.875 -22.390625 11.300781 -20.800781 11.15625 -18.75 L 22.84375 -18.75 C 22.8125 -20.800781 22.273438 -22.390625 21.234375 -23.515625 C 20.191406 -24.640625 18.789062 -25.203125 17.03125 -25.203125 Z M 18.203125 0.546875 C 13.285156 0.546875 9.441406 -0.804688 6.671875 -3.515625 C 3.898438 -6.234375 2.515625 -10.082031 2.515625 -15.0625 C 2.515625 -20.175781 3.789062 -24.128906 6.34375 -26.921875 C 8.90625 -29.722656 12.445312 -31.125 16.96875 -31.125 C 21.289062 -31.125 24.648438 -29.894531 27.046875 -27.4375 C 29.453125 -24.976562 30.65625 -21.582031 30.65625 -17.25 L 30.65625 -13.203125 L 10.953125 -13.203125 C 11.046875 -10.828125 11.75 -8.972656 13.0625 -7.640625 C 14.375 -6.316406 16.210938 -5.65625 18.578125 -5.65625 C 20.421875 -5.65625 22.160156 -5.847656 23.796875 -6.234375 C 25.441406 -6.617188 27.15625 -7.226562 28.9375 -8.0625 L 28.9375 -1.609375 C 27.476562 -0.878906 25.921875 -0.335938 24.265625 0.015625 C 22.609375 0.367188 20.585938 0.546875 18.203125 0.546875 Z M 18.203125 0.546875 "/></g></g></g><g fill="#ffffff" fill-opacity="1"><g transform="translate(673.811013, 235.175782)"><g><path d="M 32.578125 0 L 24.234375 0 L 24.234375 -17.84375 C 24.234375 -20.050781 23.84375 -21.703125 23.0625 -22.796875 C 22.28125 -23.898438 21.035156 -24.453125 19.328125 -24.453125 C 16.992188 -24.453125 15.304688 -23.671875 14.265625 -22.109375 C 13.222656 -20.554688 12.703125 -17.976562 12.703125 -14.375 L 12.703125 0 L 4.375 0 L 4.375 -30.546875 L 10.734375 -30.546875 L 11.859375 -26.640625 L 12.328125 -26.640625 C 13.253906 -28.117188 14.53125 -29.234375 16.15625 -29.984375 C 17.789062 -30.742188 19.644531 -31.125 21.71875 -31.125 C 25.28125 -31.125 27.976562 -30.160156 29.8125 -28.234375 C 31.65625 -26.316406 32.578125 -23.546875 32.578125 -19.921875 Z M 32.578125 0 "/></g></g></g><g fill="#ffffff" fill-opacity="1"><g transform="translate(710.59259, 235.175782)"><g><path d="M 16.78125 0.546875 C 7.269531 0.546875 2.515625 -4.671875 2.515625 -15.109375 C 2.515625 -20.304688 3.804688 -24.273438 6.390625 -27.015625 C 8.984375 -29.753906 12.691406 -31.125 17.515625 -31.125 C 21.046875 -31.125 24.21875 -30.429688 27.03125 -29.046875 L 24.5625 -22.59375 C 23.25 -23.125 22.03125 -23.554688 20.90625 -23.890625 C 19.78125 -24.234375 18.648438 -24.40625 17.515625 -24.40625 C 13.179688 -24.40625 11.015625 -21.328125 11.015625 -15.171875 C 11.015625 -9.191406 13.179688 -6.203125 17.515625 -6.203125 C 19.117188 -6.203125 20.601562 -6.414062 21.96875 -6.84375 C 23.332031 -7.269531 24.703125 -7.941406 26.078125 -8.859375 L 26.078125 -1.71875 C 24.722656 -0.863281 23.359375 -0.273438 21.984375 0.046875 C 20.609375 0.378906 18.875 0.546875 16.78125 0.546875 Z M 16.78125 0.546875 "/></g></g></g><g fill="#ffffff" fill-opacity="1"><g transform="translate(739.367486, 235.175782)"><g><path d="M 4.015625 -38.453125 C 4.015625 -41.160156 5.523438 -42.515625 8.546875 -42.515625 C 11.578125 -42.515625 13.09375 -41.160156 13.09375 -38.453125 C 13.09375 -37.160156 12.710938 -36.15625 11.953125 -35.4375 C 11.203125 -34.71875 10.066406 -34.359375 8.546875 -34.359375 C 5.523438 -34.359375 4.015625 -35.722656 4.015625 -38.453125 Z M 12.703125 0 L 4.375 0 L 4.375 -30.546875 L 12.703125 -30.546875 Z M 12.703125 0 "/></g></g></g><g fill="#ffffff" fill-opacity="1"><g transform="translate(756.446598, 235.175782)"><g><path d="M 23.78125 0 L 22.15625 -4.15625 L 21.9375 -4.15625 C 20.539062 -2.382812 19.097656 -1.15625 17.609375 -0.46875 C 16.128906 0.207031 14.195312 0.546875 11.8125 0.546875 C 8.875 0.546875 6.5625 -0.289062 4.875 -1.96875 C 3.1875 -3.644531 2.34375 -6.03125 2.34375 -9.125 C 2.34375 -12.375 3.476562 -14.765625 5.75 -16.296875 C 8.019531 -17.835938 11.441406 -18.691406 16.015625 -18.859375 L 21.3125 -19.015625 L 21.3125 -20.359375 C 21.3125 -23.453125 19.726562 -25 16.5625 -25 C 14.125 -25 11.253906 -24.265625 7.953125 -22.796875 L 5.1875 -28.421875 C 8.707031 -30.265625 12.609375 -31.1875 16.890625 -31.1875 C 20.984375 -31.1875 24.125 -30.289062 26.3125 -28.5 C 28.5 -26.71875 29.59375 -24.003906 29.59375 -20.359375 L 29.59375 0 Z M 21.3125 -14.15625 L 18.09375 -14.046875 C 15.664062 -13.972656 13.859375 -13.535156 12.671875 -12.734375 C 11.492188 -11.929688 10.90625 -10.710938 10.90625 -9.078125 C 10.90625 -6.722656 12.253906 -5.546875 14.953125 -5.546875 C 16.878906 -5.546875 18.421875 -6.097656 19.578125 -7.203125 C 20.734375 -8.316406 21.3125 -9.796875 21.3125 -11.640625 Z M 21.3125 -14.15625 "/></g></g></g><g fill="#ffffff" fill-opacity="1"><g transform="translate(245.878188, 531.547088)"><g><path d="M 17.25 -6.09375 C 18.707031 -6.09375 20.453125 -6.410156 22.484375 -7.046875 L 22.484375 -0.84375 C 20.410156 0.0820312 17.863281 0.546875 14.84375 0.546875 C 11.507812 0.546875 9.082031 -0.296875 7.5625 -1.984375 C 6.039062 -3.671875 5.28125 -6.195312 5.28125 -9.5625 L 5.28125 -24.296875 L 1.28125 -24.296875 L 1.28125 -27.828125 L 5.875 -30.609375 L 8.28125 -37.0625 L 13.609375 -37.0625 L 13.609375 -30.546875 L 22.15625 -30.546875 L 22.15625 -24.296875 L 13.609375 -24.296875 L 13.609375 -9.5625 C 13.609375 -8.375 13.941406 -7.5 14.609375 -6.9375 C 15.273438 -6.375 16.15625 -6.09375 17.25 -6.09375 Z M 17.25 -6.09375 "/></g></g></g><g fill="#ffffff" fill-opacity="1"><g transform="translate(270.171533, 531.547088)"><g><path d="M 21.421875 -31.125 C 22.554688 -31.125 23.492188 -31.039062 24.234375 -30.875 L 23.609375 -23.0625 C 22.929688 -23.25 22.113281 -23.34375 21.15625 -23.34375 C 18.488281 -23.34375 16.410156 -22.65625 14.921875 -21.28125 C 13.441406 -19.914062 12.703125 -18.003906 12.703125 -15.546875 L 12.703125 0 L 4.375 0 L 4.375 -30.546875 L 10.6875 -30.546875 L 11.921875 -25.421875 L 12.328125 -25.421875 C 13.273438 -27.128906 14.550781 -28.503906 16.15625 -29.546875 C 17.769531 -30.597656 19.523438 -31.125 21.421875 -31.125 Z M 21.421875 -31.125 "/></g></g></g><g fill="#ffffff" fill-opacity="1"><g transform="translate(295.585269, 531.547088)"><g><path d="M 23.78125 0 L 22.15625 -4.15625 L 21.9375 -4.15625 C 20.539062 -2.382812 19.097656 -1.15625 17.609375 -0.46875 C 16.128906 0.207031 14.195312 0.546875 11.8125 0.546875 C 8.875 0.546875 6.5625 -0.289062 4.875 -1.96875 C 3.1875 -3.644531 2.34375 -6.03125 2.34375 -9.125 C 2.34375 -12.375 3.476562 -14.765625 5.75 -16.296875 C 8.019531 -17.835938 11.441406 -18.691406 16.015625 -18.859375 L 21.3125 -19.015625 L 21.3125 -20.359375 C 21.3125 -23.453125 19.726562 -25 16.5625 -25 C 14.125 -25 11.253906 -24.265625 7.953125 -22.796875 L 5.1875 -28.421875 C 8.707031 -30.265625 12.609375 -31.1875 16.890625 -31.1875 C 20.984375 -31.1875 24.125 -30.289062 26.3125 -28.5 C 28.5 -26.71875 29.59375 -24.003906 29.59375 -20.359375 L 29.59375 0 Z M 21.3125 -14.15625 L 18.09375 -14.046875 C 15.664062 -13.972656 13.859375 -13.535156 12.671875 -12.734375 C 11.492188 -11.929688 10.90625 -10.710938 10.90625 -9.078125 C 10.90625 -6.722656 12.253906 -5.546875 14.953125 -5.546875 C 16.878906 -5.546875 18.421875 -6.097656 19.578125 -7.203125 C 20.734375 -8.316406 21.3125 -9.796875 21.3125 -11.640625 Z M 21.3125 -14.15625 "/></g></g></g><g fill="#ffffff" fill-opacity="1"><g transform="translate(329.388271, 531.547088)"><g><path d="M 21.375 -31.125 C 24.976562 -31.125 27.800781 -29.71875 29.84375 -26.90625 C 31.882812 -24.09375 32.90625 -20.234375 32.90625 -15.328125 C 32.90625 -10.285156 31.851562 -6.378906 29.75 -3.609375 C 27.644531 -0.835938 24.78125 0.546875 21.15625 0.546875 C 17.5625 0.546875 14.742188 -0.753906 12.703125 -3.359375 L 12.140625 -3.359375 L 10.734375 0 L 4.375 0 L 4.375 -42.515625 L 12.703125 -42.515625 L 12.703125 -32.625 C 12.703125 -31.375 12.59375 -29.363281 12.375 -26.59375 L 12.703125 -26.59375 C 14.648438 -29.613281 17.539062 -31.125 21.375 -31.125 Z M 18.6875 -24.453125 C 16.632812 -24.453125 15.132812 -23.816406 14.1875 -22.546875 C 13.238281 -21.285156 12.742188 -19.195312 12.703125 -16.28125 L 12.703125 -15.390625 C 12.703125 -12.109375 13.1875 -9.753906 14.15625 -8.328125 C 15.132812 -6.910156 16.679688 -6.203125 18.796875 -6.203125 C 20.515625 -6.203125 21.878906 -6.988281 22.890625 -8.5625 C 23.898438 -10.144531 24.40625 -12.4375 24.40625 -15.4375 C 24.40625 -18.445312 23.894531 -20.703125 22.875 -22.203125 C 21.851562 -23.703125 20.457031 -24.453125 18.6875 -24.453125 Z M 18.6875 -24.453125 "/></g></g></g><g fill="#ffffff" fill-opacity="1"><g transform="translate(364.803541, 531.547088)"><g><path d="M 23.78125 0 L 22.15625 -4.15625 L 21.9375 -4.15625 C 20.539062 -2.382812 19.097656 -1.15625 17.609375 -0.46875 C 16.128906 0.207031 14.195312 0.546875 11.8125 0.546875 C 8.875 0.546875 6.5625 -0.289062 4.875 -1.96875 C 3.1875 -3.644531 2.34375 -6.03125 2.34375 -9.125 C 2.34375 -12.375 3.476562 -14.765625 5.75 -16.296875 C 8.019531 -17.835938 11.441406 -18.691406 16.015625 -18.859375 L 21.3125 -19.015625 L 21.3125 -20.359375 C 21.3125 -23.453125 19.726562 -25 16.5625 -25 C 14.125 -25 11.253906 -24.265625 7.953125 -22.796875 L 5.1875 -28.421875 C 8.707031 -30.265625 12.609375 -31.1875 16.890625 -31.1875 C 20.984375 -31.1875 24.125 -30.289062 26.3125 -28.5 C 28.5 -26.71875 29.59375 -24.003906 29.59375 -20.359375 L 29.59375 0 Z M 21.3125 -14.15625 L 18.09375 -14.046875 C 15.664062 -13.972656 13.859375 -13.535156 12.671875 -12.734375 C 11.492188 -11.929688 10.90625 -10.710938 10.90625 -9.078125 C 10.90625 -6.722656 12.253906 -5.546875 14.953125 -5.546875 C 16.878906 -5.546875 18.421875 -6.097656 19.578125 -7.203125 C 20.734375 -8.316406 21.3125 -9.796875 21.3125 -11.640625 Z M 21.3125 -14.15625 "/></g></g></g><g fill="#ffffff" fill-opacity="1"><g transform="translate(398.606543, 531.547088)"><g><path d="M 1.90625 13.453125 C -0.21875 13.453125 -2.046875 13.222656 -3.578125 12.765625 L -3.578125 6.203125 C -2.304688 6.546875 -1.003906 6.71875 0.328125 6.71875 C 1.734375 6.71875 2.757812 6.328125 3.40625 5.546875 C 4.050781 4.765625 4.375 3.609375 4.375 2.078125 L 4.375 -30.546875 L 12.703125 -30.546875 L 12.703125 3.3125 C 12.703125 6.550781 11.765625 9.050781 9.890625 10.8125 C 8.015625 12.570312 5.351562 13.453125 1.90625 13.453125 Z M 4.015625 -38.453125 C 4.015625 -41.160156 5.523438 -42.515625 8.546875 -42.515625 C 11.578125 -42.515625 13.09375 -41.160156 13.09375 -38.453125 C 13.09375 -37.160156 12.710938 -36.15625 11.953125 -35.4375 C 11.203125 -34.71875 10.066406 -34.359375 8.546875 -34.359375 C 5.523438 -34.359375 4.015625 -35.722656 4.015625 -38.453125 Z M 4.015625 -38.453125 "/></g></g></g><g fill="#ffffff" fill-opacity="1"><g transform="translate(415.685666, 531.547088)"><g><path d="M 11.015625 -15.328125 C 11.015625 -12.304688 11.507812 -10.019531 12.5 -8.46875 C 13.5 -6.925781 15.117188 -6.15625 17.359375 -6.15625 C 19.578125 -6.15625 21.171875 -6.921875 22.140625 -8.453125 C 23.117188 -9.992188 23.609375 -12.285156 23.609375 -15.328125 C 23.609375 -18.359375 23.113281 -20.628906 22.125 -22.140625 C 21.144531 -23.648438 19.535156 -24.40625 17.296875 -24.40625 C 15.078125 -24.40625 13.472656 -23.648438 12.484375 -22.140625 C 11.503906 -20.640625 11.015625 -18.367188 11.015625 -15.328125 Z M 32.140625 -15.328125 C 32.140625 -10.359375 30.828125 -6.46875 28.203125 -3.65625 C 25.578125 -0.851562 21.925781 0.546875 17.25 0.546875 C 14.3125 0.546875 11.722656 -0.09375 9.484375 -1.375 C 7.242188 -2.664062 5.519531 -4.507812 4.3125 -6.90625 C 3.113281 -9.3125 2.515625 -12.117188 2.515625 -15.328125 C 2.515625 -20.316406 3.816406 -24.195312 6.421875 -26.96875 C 9.023438 -29.738281 12.6875 -31.125 17.40625 -31.125 C 20.34375 -31.125 22.929688 -30.484375 25.171875 -29.203125 C 27.410156 -27.929688 29.128906 -26.101562 30.328125 -23.71875 C 31.535156 -21.332031 32.140625 -18.535156 32.140625 -15.328125 Z M 32.140625 -15.328125 "/></g></g></g><g fill="#ffffff" fill-opacity="1"><g transform="translate(450.335791, 531.547088)"><g><path d="M 25.6875 -9.078125 C 25.6875 -5.941406 24.597656 -3.550781 22.421875 -1.90625 C 20.242188 -0.269531 16.988281 0.546875 12.65625 0.546875 C 10.425781 0.546875 8.53125 0.394531 6.96875 0.09375 C 5.40625 -0.207031 3.9375 -0.648438 2.5625 -1.234375 L 2.5625 -8.109375 C 4.113281 -7.378906 5.859375 -6.769531 7.796875 -6.28125 C 9.742188 -5.789062 11.453125 -5.546875 12.921875 -5.546875 C 15.953125 -5.546875 17.46875 -6.421875 17.46875 -8.171875 C 17.46875 -8.828125 17.265625 -9.359375 16.859375 -9.765625 C 16.460938 -10.179688 15.769531 -10.644531 14.78125 -11.15625 C 13.800781 -11.675781 12.488281 -12.285156 10.84375 -12.984375 C 8.5 -13.960938 6.773438 -14.867188 5.671875 -15.703125 C 4.566406 -16.546875 3.765625 -17.507812 3.265625 -18.59375 C 2.765625 -19.675781 2.515625 -21.007812 2.515625 -22.59375 C 2.515625 -25.3125 3.566406 -27.410156 5.671875 -28.890625 C 7.773438 -30.378906 10.757812 -31.125 14.625 -31.125 C 18.300781 -31.125 21.878906 -30.320312 25.359375 -28.71875 L 22.84375 -22.703125 C 21.3125 -23.359375 19.878906 -23.894531 18.546875 -24.3125 C 17.222656 -24.738281 15.867188 -24.953125 14.484375 -24.953125 C 12.023438 -24.953125 10.796875 -24.285156 10.796875 -22.953125 C 10.796875 -22.203125 11.191406 -21.554688 11.984375 -21.015625 C 12.773438 -20.472656 14.507812 -19.660156 17.1875 -18.578125 C 19.570312 -17.617188 21.320312 -16.71875 22.4375 -15.875 C 23.550781 -15.039062 24.367188 -14.078125 24.890625 -12.984375 C 25.421875 -11.890625 25.6875 -10.585938 25.6875 -9.078125 Z M 25.6875 -9.078125 "/></g></g></g><g fill="#ffffff" fill-opacity="1"><g transform="translate(478.154268, 531.547088)"><g/></g></g><g fill="#ffffff" fill-opacity="1"><g transform="translate(492.692018, 531.547088)"><g><path d="M 21.421875 -31.125 C 22.554688 -31.125 23.492188 -31.039062 24.234375 -30.875 L 23.609375 -23.0625 C 22.929688 -23.25 22.113281 -23.34375 21.15625 -23.34375 C 18.488281 -23.34375 16.410156 -22.65625 14.921875 -21.28125 C 13.441406 -19.914062 12.703125 -18.003906 12.703125 -15.546875 L 12.703125 0 L 4.375 0 L 4.375 -30.546875 L 10.6875 -30.546875 L 11.921875 -25.421875 L 12.328125 -25.421875 C 13.273438 -27.128906 14.550781 -28.503906 16.15625 -29.546875 C 17.769531 -30.597656 19.523438 -31.125 21.421875 -31.125 Z M 21.421875 -31.125 "/></g></g></g><g fill="#ffffff" fill-opacity="1"><g transform="translate(518.105754, 531.547088)"><g><path d="M 17.03125 -25.203125 C 15.257812 -25.203125 13.875 -24.640625 12.875 -23.515625 C 11.875 -22.390625 11.300781 -20.800781 11.15625 -18.75 L 22.84375 -18.75 C 22.8125 -20.800781 22.273438 -22.390625 21.234375 -23.515625 C 20.191406 -24.640625 18.789062 -25.203125 17.03125 -25.203125 Z M 18.203125 0.546875 C 13.285156 0.546875 9.441406 -0.804688 6.671875 -3.515625 C 3.898438 -6.234375 2.515625 -10.082031 2.515625 -15.0625 C 2.515625 -20.175781 3.789062 -24.128906 6.34375 -26.921875 C 8.90625 -29.722656 12.445312 -31.125 16.96875 -31.125 C 21.289062 -31.125 24.648438 -29.894531 27.046875 -27.4375 C 29.453125 -24.976562 30.65625 -21.582031 30.65625 -17.25 L 30.65625 -13.203125 L 10.953125 -13.203125 C 11.046875 -10.828125 11.75 -8.972656 13.0625 -7.640625 C 14.375 -6.316406 16.210938 -5.65625 18.578125 -5.65625 C 20.421875 -5.65625 22.160156 -5.847656 23.796875 -6.234375 C 25.441406 -6.617188 27.15625 -7.226562 28.9375 -8.0625 L 28.9375 -1.609375 C 27.476562 -0.878906 25.921875 -0.335938 24.265625 0.015625 C 22.609375 0.367188 20.585938 0.546875 18.203125 0.546875 Z M 18.203125 0.546875 "/></g></g></g><g fill="#ffffff" fill-opacity="1"><g transform="translate(551.170937, 531.547088)"><g><path d="M 23.78125 0 L 22.15625 -4.15625 L 21.9375 -4.15625 C 20.539062 -2.382812 19.097656 -1.15625 17.609375 -0.46875 C 16.128906 0.207031 14.195312 0.546875 11.8125 0.546875 C 8.875 0.546875 6.5625 -0.289062 4.875 -1.96875 C 3.1875 -3.644531 2.34375 -6.03125 2.34375 -9.125 C 2.34375 -12.375 3.476562 -14.765625 5.75 -16.296875 C 8.019531 -17.835938 11.441406 -18.691406 16.015625 -18.859375 L 21.3125 -19.015625 L 21.3125 -20.359375 C 21.3125 -23.453125 19.726562 -25 16.5625 -25 C 14.125 -25 11.253906 -24.265625 7.953125 -22.796875 L 5.1875 -28.421875 C 8.707031 -30.265625 12.609375 -31.1875 16.890625 -31.1875 C 20.984375 -31.1875 24.125 -30.289062 26.3125 -28.5 C 28.5 -26.71875 29.59375 -24.003906 29.59375 -20.359375 L 29.59375 0 Z M 21.3125 -14.15625 L 18.09375 -14.046875 C 15.664062 -13.972656 13.859375 -13.535156 12.671875 -12.734375 C 11.492188 -11.929688 10.90625 -10.710938 10.90625 -9.078125 C 10.90625 -6.722656 12.253906 -5.546875 14.953125 -5.546875 C 16.878906 -5.546875 18.421875 -6.097656 19.578125 -7.203125 C 20.734375 -8.316406 21.3125 -9.796875 21.3125 -11.640625 Z M 21.3125 -14.15625 "/></g></g></g><g fill="#ffffff" fill-opacity="1"><g transform="translate(584.973926, 531.547088)"><g><path d="M 12.703125 0 L 4.375 0 L 4.375 -42.515625 L 12.703125 -42.515625 Z M 12.703125 0 "/></g></g></g><g fill="#ffffff" fill-opacity="1"><g transform="translate(602.053038, 531.547088)"><g><path d="M 4.015625 -38.453125 C 4.015625 -41.160156 5.523438 -42.515625 8.546875 -42.515625 C 11.578125 -42.515625 13.09375 -41.160156 13.09375 -38.453125 C 13.09375 -37.160156 12.710938 -36.15625 11.953125 -35.4375 C 11.203125 -34.71875 10.066406 -34.359375 8.546875 -34.359375 C 5.523438 -34.359375 4.015625 -35.722656 4.015625 -38.453125 Z M 12.703125 0 L 4.375 0 L 4.375 -30.546875 L 12.703125 -30.546875 Z M 12.703125 0 "/></g></g></g><g fill="#ffffff" fill-opacity="1"><g transform="translate(619.13215, 531.547088)"><g><path d="M 25.640625 0 L 1.5 0 L 1.5 -4.921875 L 15.65625 -24.1875 L 2.34375 -24.1875 L 2.34375 -30.546875 L 25.140625 -30.546875 L 25.140625 -25.140625 L 11.375 -6.375 L 25.640625 -6.375 Z M 25.640625 0 "/></g></g></g><g fill="#ffffff" fill-opacity="1"><g transform="translate(646.431433, 531.547088)"><g><path d="M 23.78125 0 L 22.15625 -4.15625 L 21.9375 -4.15625 C 20.539062 -2.382812 19.097656 -1.15625 17.609375 -0.46875 C 16.128906 0.207031 14.195312 0.546875 11.8125 0.546875 C 8.875 0.546875 6.5625 -0.289062 4.875 -1.96875 C 3.1875 -3.644531 2.34375 -6.03125 2.34375 -9.125 C 2.34375 -12.375 3.476562 -14.765625 5.75 -16.296875 C 8.019531 -17.835938 11.441406 -18.691406 16.015625 -18.859375 L 21.3125 -19.015625 L 21.3125 -20.359375 C 21.3125 -23.453125 19.726562 -25 16.5625 -25 C 14.125 -25 11.253906 -24.265625 7.953125 -22.796875 L 5.1875 -28.421875 C 8.707031 -30.265625 12.609375 -31.1875 16.890625 -31.1875 C 20.984375 -31.1875 24.125 -30.289062 26.3125 -28.5 C 28.5 -26.71875 29.59375 -24.003906 29.59375 -20.359375 L 29.59375 0 Z M 21.3125 -14.15625 L 18.09375 -14.046875 C 15.664062 -13.972656 13.859375 -13.535156 12.671875 -12.734375 C 11.492188 -11.929688 10.90625 -10.710938 10.90625 -9.078125 C 10.90625 -6.722656 12.253906 -5.546875 14.953125 -5.546875 C 16.878906 -5.546875 18.421875 -6.097656 19.578125 -7.203125 C 20.734375 -8.316406 21.3125 -9.796875 21.3125 -11.640625 Z M 21.3125 -14.15625 "/></g></g></g><g fill="#ffffff" fill-opacity="1"><g transform="translate(680.234422, 531.547088)"><g><path d="M 14.046875 0.546875 C 10.453125 0.546875 7.628906 -0.84375 5.578125 -3.625 C 3.535156 -6.414062 2.515625 -10.28125 2.515625 -15.21875 C 2.515625 -20.226562 3.554688 -24.128906 5.640625 -26.921875 C 7.722656 -29.722656 10.597656 -31.125 14.265625 -31.125 C 18.109375 -31.125 21.039062 -29.628906 23.0625 -26.640625 L 23.34375 -26.640625 C 22.914062 -28.921875 22.703125 -30.953125 22.703125 -32.734375 L 22.703125 -42.515625 L 31.078125 -42.515625 L 31.078125 0 L 24.671875 0 L 23.0625 -3.96875 L 22.703125 -3.96875 C 20.816406 -0.957031 17.929688 0.546875 14.046875 0.546875 Z M 16.96875 -6.09375 C 19.101562 -6.09375 20.664062 -6.710938 21.65625 -7.953125 C 22.644531 -9.191406 23.1875 -11.296875 23.28125 -14.265625 L 23.28125 -15.171875 C 23.28125 -18.453125 22.773438 -20.800781 21.765625 -22.21875 C 20.753906 -23.632812 19.109375 -24.34375 16.828125 -24.34375 C 14.972656 -24.34375 13.53125 -23.554688 12.5 -21.984375 C 11.46875 -20.410156 10.953125 -18.117188 10.953125 -15.109375 C 10.953125 -12.109375 11.472656 -9.851562 12.515625 -8.34375 C 13.554688 -6.84375 15.039062 -6.09375 16.96875 -6.09375 Z M 16.96875 -6.09375 "/></g></g></g><g fill="#ffffff" fill-opacity="1"><g transform="translate(715.649693, 531.547088)"><g><path d="M 11.015625 -15.328125 C 11.015625 -12.304688 11.507812 -10.019531 12.5 -8.46875 C 13.5 -6.925781 15.117188 -6.15625 17.359375 -6.15625 C 19.578125 -6.15625 21.171875 -6.921875 22.140625 -8.453125 C 23.117188 -9.992188 23.609375 -12.285156 23.609375 -15.328125 C 23.609375 -18.359375 23.113281 -20.628906 22.125 -22.140625 C 21.144531 -23.648438 19.535156 -24.40625 17.296875 -24.40625 C 15.078125 -24.40625 13.472656 -23.648438 12.484375 -22.140625 C 11.503906 -20.640625 11.015625 -18.367188 11.015625 -15.328125 Z M 32.140625 -15.328125 C 32.140625 -10.359375 30.828125 -6.46875 28.203125 -3.65625 C 25.578125 -0.851562 21.925781 0.546875 17.25 0.546875 C 14.3125 0.546875 11.722656 -0.09375 9.484375 -1.375 C 7.242188 -2.664062 5.519531 -4.507812 4.3125 -6.90625 C 3.113281 -9.3125 2.515625 -12.117188 2.515625 -15.328125 C 2.515625 -20.316406 3.816406 -24.195312 6.421875 -26.96875 C 9.023438 -29.738281 12.6875 -31.125 17.40625 -31.125 C 20.34375 -31.125 22.929688 -30.484375 25.171875 -29.203125 C 27.410156 -27.929688 29.128906 -26.101562 30.328125 -23.71875 C 31.535156 -21.332031 32.140625 -18.535156 32.140625 -15.328125 Z M 32.140625 -15.328125 "/></g></g></g><g fill="#ffffff" fill-opacity="1"><g transform="translate(750.299818, 531.547088)"><g><path d="M 25.6875 -9.078125 C 25.6875 -5.941406 24.597656 -3.550781 22.421875 -1.90625 C 20.242188 -0.269531 16.988281 0.546875 12.65625 0.546875 C 10.425781 0.546875 8.53125 0.394531 6.96875 0.09375 C 5.40625 -0.207031 3.9375 -0.648438 2.5625 -1.234375 L 2.5625 -8.109375 C 4.113281 -7.378906 5.859375 -6.769531 7.796875 -6.28125 C 9.742188 -5.789062 11.453125 -5.546875 12.921875 -5.546875 C 15.953125 -5.546875 17.46875 -6.421875 17.46875 -8.171875 C 17.46875 -8.828125 17.265625 -9.359375 16.859375 -9.765625 C 16.460938 -10.179688 15.769531 -10.644531 14.78125 -11.15625 C 13.800781 -11.675781 12.488281 -12.285156 10.84375 -12.984375 C 8.5 -13.960938 6.773438 -14.867188 5.671875 -15.703125 C 4.566406 -16.546875 3.765625 -17.507812 3.265625 -18.59375 C 2.765625 -19.675781 2.515625 -21.007812 2.515625 -22.59375 C 2.515625 -25.3125 3.566406 -27.410156 5.671875 -28.890625 C 7.773438 -30.378906 10.757812 -31.125 14.625 -31.125 C 18.300781 -31.125 21.878906 -30.320312 25.359375 -28.71875 L 22.84375 -22.703125 C 21.3125 -23.359375 19.878906 -23.894531 18.546875 -24.3125 C 17.222656 -24.738281 15.867188 -24.953125 14.484375 -24.953125 C 12.023438 -24.953125 10.796875 -24.285156 10.796875 -22.953125 C 10.796875 -22.203125 11.191406 -21.554688 11.984375 -21.015625 C 12.773438 -20.472656 14.507812 -19.660156 17.1875 -18.578125 C 19.570312 -17.617188 21.320312 -16.71875 22.4375 -15.875 C 23.550781 -15.039062 24.367188 -14.078125 24.890625 -12.984375 C 25.421875 -11.890625 25.6875 -10.585938 25.6875 -9.078125 Z M 25.6875 -9.078125 "/></g></g></g></svg>